<?xml version="1.0" encoding="UTF-8"?>
<!DOCTYPE svg  PUBLIC '-//W3C//DTD SVG 1.1//EN'  'http://www.w3.org/Graphics/SVG/1.1/DTD/svg11.dtd'>
<svg enable-background="new 255.8 0 536.2 612" version="1.1" viewBox="255.8 0 536.2 612" xml:space="preserve" xmlns="http://www.w3.org/2000/svg">
<g fill="#fff">
	<path d="m733 486.4h-235.1c-21.1 0-36.5-1.4-45.6-4.9-15.4-5.6-23.2-17.5-23.2-35.1 0-15.4 6.3-32.3 19.7-49.1l167.7-230.3h-110.8c-54 0-69.5-19.7-69.5-59s30.2-58.3 84.9-58.3h201.4c25.3 0 42.8 1.4 51.9 4.2 7 2.1 12.6 4.2 16.8 7.7v-10.4c0-25.3-26.7-51.9-51.9-51.9h-431.6c-25.2 0.7-51.9 26.7-51.9 51.9v433c0 25.3 26.7 51.9 51.9 51.9h84.9l-0.7 75.8 105.3-75.8h243.5c25.3 0 51.9-26.7 51.9-51.9v-11.2c-13.9 9.2-33.6 13.4-59.6 13.4z"/>
	<path d="M614.4,372.7h119.3c25.3,0,44.9,3.5,58.3,10.5V125.6c-3.5,6.3-8.4,13.3-14,20.4L614.4,372.7z"/>
</g>
</svg>
